<?xml version="1.0" encoding="utf-8"?>
<!-- Generator: Adobe Illustrator 25.0.1, SVG Export Plug-In . SVG Version: 6.00 Build 0)  -->
<svg version="1.1" id="Layer_1" xmlns="http://www.w3.org/2000/svg" xmlns:xlink="http://www.w3.org/1999/xlink" x="0px" y="0px"
	 viewBox="0 0 1478.9 294.7" style="enable-background:new 0 0 1478.9 294.7;" xml:space="preserve">
<style type="text/css">
	.st0{fill:url(#SVGID_1_);}
	.st1{fill:url(#SVGID_2_);}
	.st2{fill:url(#SVGID_3_);}
	.st3{fill:url(#SVGID_4_);}
	.st4{fill:url(#SVGID_5_);}
	.st5{fill:url(#SVGID_6_);}
	.st6{fill:#4D4D4D;}
</style>
<g>
	<g>
		
			<linearGradient id="SVGID_1_" gradientUnits="userSpaceOnUse" x1="466.2181" y1="187.0081" x2="90.9949" y2="11.579" gradientTransform="matrix(1 0 0 -1 0 296)">
			<stop  offset="0" style="stop-color:#D29829"/>
			<stop  offset="0.1021" style="stop-color:#D2992B"/>
			<stop  offset="0.2016" style="stop-color:#D49D33"/>
			<stop  offset="0.3002" style="stop-color:#D8A443"/>
			<stop  offset="0.3982" style="stop-color:#DCAE5A"/>
			<stop  offset="0.4957" style="stop-color:#E3BC76"/>
			<stop  offset="0.5918" style="stop-color:#EBCD98"/>
			<stop  offset="0.6097" style="stop-color:#ECD19F"/>
			<stop  offset="0.7005" style="stop-color:#E5C07E"/>
			<stop  offset="0.8409" style="stop-color:#DAA94F"/>
			<stop  offset="0.9448" style="stop-color:#D49D32"/>
			<stop  offset="1" style="stop-color:#D29829"/>
		</linearGradient>
		<path class="st0" d="M178.2,293.4c0-0.9,0-1.7,0-2.4c0-16.6,0.2-33.3-0.1-49.9c-0.1-7.5,0-15,1.8-22.3c3.6-14.5,11.2-26.4,23.6-35
			c11.5-7.9,23.9-14.4,36.4-20.3c13.8-6.6,27.7-13,41.7-19.2c11.6-5.1,23.4-9.9,35-14.8c0.3-0.1,0.6-0.2,1.4-0.4
			c-0.8,3.7-1.3,7.2-2.2,10.6c-2.4,8.4-6,16.2-11.7,22.9c-5.3,6.4-11.8,11.1-19.6,13.9c-12.3,4.4-24.8,8.5-37.1,12.8
			c-8.1,2.9-16.3,5.8-24.2,9.3c-7,3-11.7,8.7-15.2,15.4c-4.8,8.9-6.1,18.6-6.3,28.5c-0.2,7.9,0,15.8-0.2,23.7
			c-0.1,5.3-0.9,10.5-3.6,15.3c-3.7,6.6-10,9.6-16.9,11.4C180.2,293,179.3,293.1,178.2,293.4z"/>
		
			<linearGradient id="SVGID_2_" gradientUnits="userSpaceOnUse" x1="439.554" y1="244.0395" x2="64.3308" y2="68.6105" gradientTransform="matrix(1 0 0 -1 0 296)">
			<stop  offset="0" style="stop-color:#D29829"/>
			<stop  offset="0.1021" style="stop-color:#D2992B"/>
			<stop  offset="0.2016" style="stop-color:#D49D33"/>
			<stop  offset="0.3002" style="stop-color:#D8A443"/>
			<stop  offset="0.3982" style="stop-color:#DCAE5A"/>
			<stop  offset="0.4957" style="stop-color:#E3BC76"/>
			<stop  offset="0.5918" style="stop-color:#EBCD98"/>
			<stop  offset="0.6097" style="stop-color:#ECD19F"/>
			<stop  offset="0.7005" style="stop-color:#E5C07E"/>
			<stop  offset="0.8409" style="stop-color:#DAA94F"/>
			<stop  offset="0.9448" style="stop-color:#D49D32"/>
			<stop  offset="1" style="stop-color:#D29829"/>
		</linearGradient>
		<path class="st1" d="M29.7,128.9c3.9,1.6,7.6,3,11.2,4.5c12.4,5.3,24.9,10.6,37.2,16c19.7,8.8,39.3,17.9,57.9,28.9
			c6.9,4.1,13.6,8.6,18.9,14.8c6.5,7.5,10.6,16.2,13,25.8c1.6,6.5,1.8,13.2,1.7,19.8c0,17.7,0,35.3,0,53c0,0.4,0,0.8-0.1,1.2
			c-11.4-1.7-20.7-7.9-22.5-20c-0.7-4.7-0.9-9.6-1-14.4c-0.2-7.8,0.1-15.6-0.4-23.3c-0.7-11.6-4.3-22.2-12.5-30.8
			c-3.4-3.5-7.5-6-12-7.7c-10.6-3.9-21.3-7.7-31.9-11.5c-9.8-3.5-19.7-6.7-29.4-10.6c-10.1-4.1-17.2-11.8-22.3-21.3
			C33.3,146,30.8,137.9,29.7,128.9z"/>
		
			<linearGradient id="SVGID_3_" gradientUnits="userSpaceOnUse" x1="438.6808" y1="245.9073" x2="63.4576" y2="70.4782" gradientTransform="matrix(1 0 0 -1 0 296)">
			<stop  offset="0" style="stop-color:#D29829"/>
			<stop  offset="0.1021" style="stop-color:#D2992B"/>
			<stop  offset="0.2016" style="stop-color:#D49D33"/>
			<stop  offset="0.3002" style="stop-color:#D8A443"/>
			<stop  offset="0.3982" style="stop-color:#DCAE5A"/>
			<stop  offset="0.4957" style="stop-color:#E3BC76"/>
			<stop  offset="0.5918" style="stop-color:#EBCD98"/>
			<stop  offset="0.6097" style="stop-color:#ECD19F"/>
			<stop  offset="0.7005" style="stop-color:#E5C07E"/>
			<stop  offset="0.8409" style="stop-color:#DAA94F"/>
			<stop  offset="0.9448" style="stop-color:#D49D32"/>
			<stop  offset="1" style="stop-color:#D29829"/>
		</linearGradient>
		<path class="st2" d="M345.2,59.4c-0.3,3.6-0.4,7-0.8,10.2c-1.1,8.1-2.9,16-6,23.7c-4.9,12.2-12.9,21.4-25.1,26.7
			c-13,5.6-26,11.3-39.1,16.7c-18.3,7.6-36.6,15.2-53.7,25.3c-10.8,6.4-21,13.7-29.4,23.3c-5.3,6.1-9.3,12.9-12.1,20.6
			c0-1.4,0-2.9,0-4.3c0-1.4,0-2.9,0.1-4.3c2.3-22.7,12.5-41.2,30.1-55.7c8.2-6.8,17.5-11.7,27.2-16.1c15.1-6.9,30.2-13.8,45.1-21.1
			c10.8-5.3,21.4-11.2,31.8-17.2c9.3-5.4,18.3-11.5,25.6-19.6C341.1,65.2,343,62.4,345.2,59.4z"/>
		
			<linearGradient id="SVGID_4_" gradientUnits="userSpaceOnUse" x1="407.0362" y1="313.5915" x2="31.813" y2="138.1624" gradientTransform="matrix(1 0 0 -1 0 296)">
			<stop  offset="0" style="stop-color:#D29829"/>
			<stop  offset="0.1021" style="stop-color:#D2992B"/>
			<stop  offset="0.2016" style="stop-color:#D49D33"/>
			<stop  offset="0.3002" style="stop-color:#D8A443"/>
			<stop  offset="0.3982" style="stop-color:#DCAE5A"/>
			<stop  offset="0.4957" style="stop-color:#E3BC76"/>
			<stop  offset="0.5918" style="stop-color:#EBCD98"/>
			<stop  offset="0.6097" style="stop-color:#ECD19F"/>
			<stop  offset="0.7005" style="stop-color:#E5C07E"/>
			<stop  offset="0.8409" style="stop-color:#DAA94F"/>
			<stop  offset="0.9448" style="stop-color:#D49D32"/>
			<stop  offset="1" style="stop-color:#D29829"/>
		</linearGradient>
		<path class="st3" d="M168.5,206c-1.5-3.2-2.7-6.5-4.4-9.7c-4.2-8-10.3-14.5-17.2-20.3c-10.5-8.9-22.1-16.1-34.5-21.8
			c-15-6.9-30.2-13.3-45.3-19.9c-11.9-5.2-23.7-10.3-35.5-15.7c-9.9-4.5-16.4-12.4-20.9-22.1C5.3,85.1,3.1,73,2.6,60.5
			c0-0.3,0-0.5,0.1-1.3C3.9,61,4.8,62.6,5.8,64c4.8,6.5,11,11.5,17.6,16.1c12.1,8.5,25,15.7,38.3,22.1c18,8.7,36.2,17,54.3,25.5
			c15.9,7.5,29.6,17.7,39.6,32.5c6.5,9.7,10.7,20.4,12.3,32c0.6,4.5,0.8,9.1,1.2,13.7C168.9,206,168.7,206,168.5,206z"/>
		
			<linearGradient id="SVGID_5_" gradientUnits="userSpaceOnUse" x1="373.4311" y1="385.4691" x2="-1.7921" y2="210.0401" gradientTransform="matrix(1 0 0 -1 0 296)">
			<stop  offset="0" style="stop-color:#D29829"/>
			<stop  offset="0.1021" style="stop-color:#D2992B"/>
			<stop  offset="0.2016" style="stop-color:#D49D33"/>
			<stop  offset="0.3002" style="stop-color:#D8A443"/>
			<stop  offset="0.3982" style="stop-color:#DCAE5A"/>
			<stop  offset="0.4957" style="stop-color:#E3BC76"/>
			<stop  offset="0.5918" style="stop-color:#EBCD98"/>
			<stop  offset="0.6097" style="stop-color:#ECD19F"/>
			<stop  offset="0.7005" style="stop-color:#E5C07E"/>
			<stop  offset="0.8409" style="stop-color:#DAA94F"/>
			<stop  offset="0.9448" style="stop-color:#D49D32"/>
			<stop  offset="1" style="stop-color:#D29829"/>
		</linearGradient>
		<path class="st4" d="M111.7,117.6c-5.1-2.5-9.8-4.7-14.5-6.9c-9.3-4.6-18.6-9.2-27.8-13.9c-17-8.7-33.6-18.1-48.9-29.5
			C14.3,62.8,10,56.8,6.9,50C2.3,40,0.3,29.5,0,18.6c-0.1-5,0.2-10.1,0.4-15.2c0-1,0.3-2,0.5-3.4c3.2,11.7,9.9,20.7,17.6,29.1
			c10.3,11.3,22.2,20.6,34.8,29.2c15.6,10.8,30.4,22.6,43.1,36.8c5.5,6.1,10.4,12.6,14.2,19.9C110.9,115.7,111.2,116.4,111.7,117.6z
			"/>
		
			<linearGradient id="SVGID_6_" gradientUnits="userSpaceOnUse" x1="415.7332" y1="294.9896" x2="40.51" y2="119.5605" gradientTransform="matrix(1 0 0 -1 0 296)">
			<stop  offset="0" style="stop-color:#D29829"/>
			<stop  offset="0.1021" style="stop-color:#D2992B"/>
			<stop  offset="0.2016" style="stop-color:#D49D33"/>
			<stop  offset="0.3002" style="stop-color:#D8A443"/>
			<stop  offset="0.3982" style="stop-color:#DCAE5A"/>
			<stop  offset="0.4957" style="stop-color:#E3BC76"/>
			<stop  offset="0.5918" style="stop-color:#EBCD98"/>
			<stop  offset="0.6097" style="stop-color:#ECD19F"/>
			<stop  offset="0.7005" style="stop-color:#E5C07E"/>
			<stop  offset="0.8409" style="stop-color:#DAA94F"/>
			<stop  offset="0.9448" style="stop-color:#D49D32"/>
			<stop  offset="1" style="stop-color:#D29829"/>
		</linearGradient>
		<path class="st5" d="M346.8,0.5c1.7,14.5,1.3,28.9-3.4,42.9C339.6,55,332.6,64,322.5,70.9c-15.3,10.3-31.2,19.5-47.6,27.7
			c-12.7,6.4-25.6,12.6-38.3,18.9c-0.2-0.1-0.3-0.2-0.5-0.3c1.3-2.4,2.5-4.9,4-7.1c7.2-11.4,16.6-21,26.5-30
			c11.2-10.2,23.7-18.6,36-27.5c12-8.7,23.2-18.4,32.5-30.2C340.1,15.7,344.4,8.7,346.8,0.5z"/>
	</g>
	<g>
		<path class="st6" d="M1478.9,179.7c-0.1,0.1-0.3,0.2-0.4,0.3c-4.5,13.7-8.4,16.5-23,16.6c-7.3,0-14.7-0.1-22,0
			c-9,0.1-16-3.6-21.4-10.7c-19.2-25.1-38.4-50.2-57.6-75.3c-10.6-13.9-21.1-27.8-31.8-41.6c-1.5-1.9-4.2-2.9-7.5-5
			c-0.3,3.8-0.6,5.9-0.6,8c0,38.5,0,77,0,115.5c0,8.2-0.9,9.1-9.2,9.1c-6.7,0-13.3-0.1-20,0c-4.3,0.1-6.5-1.5-6.5-6.1
			c0.1-46.7,0-93.3,0.2-140c0.1-13.2,6.7-19.5,19.9-19.7c8.8-0.1,17.7,0,26.5,0c8,0,14.6,3,19.5,9.4c21,27.5,42,55,62.9,82.6
			c9.1,11.9,18,23.9,27.3,35.7c1.5,1.9,4.2,2.8,7.6,4.9c0.2-3.9,0.4-6,0.4-8c0-38.7,0-77.3,0-116c0-7.3,1.2-8.5,8.3-8.5
			c6.7,0,13.3-0.3,20,0.1c2.5,0.2,5,1.9,7.5,2.8C1478.9,82.4,1478.9,131,1478.9,179.7z"/>
		<path class="st6" d="M422.9,32.7c2.7-0.7,5.3-1.9,8-1.9c59.8-0.1,119.6-0.1,179.4-0.1c7,0,8.2,1.1,8.2,8.1c0,6.5,0,13,0,19.5
			c0,4.5-2,6.5-6.7,6.5c-22.3-0.2-44.7-0.1-67-0.1c-1.8,0-3.6,0-6,0c0,2.4,0,4.3,0,6.2c0,39.2,0,78.3,0,117.5c0,7.1-1,8.2-8,8.2
			c-6.7,0-13.3,0-20,0c-7.5,0-8.4-0.8-8.4-8.2c0-32.7,0-65.3,0-98c0-8.3,0-16.6,0-25.4c-2.2-0.1-3.9-0.2-5.7-0.2
			c-22.2,0-44.3,0.1-66.5-0.1c-2.5,0-5-1.2-7.4-1.9C422.9,52.7,422.9,42.7,422.9,32.7z"/>
		<path class="st6" d="M921.9,294.7c-1.8-4-3.9-7.9-5.2-12.1c-3.7-11.3-7.1-22.8-10.6-34.1c0.5-0.4,0.8-0.7,1.1-0.7
			c9.4-0.7,9.3-0.7,12,8.3c2.8,9.5,5.8,19,9.2,30c2.8-8.1,5-14.8,7.3-21.5c1.2-3.6,2.7-7.2,3.4-10.9c1.2-6.1,5.4-5.9,10.1-6
			c4.7-0.1,6.3,2.3,7.6,6.2c3.3,10.3,6.8,20.5,11.4,30.9c3.7-12.2,7.3-24.4,11-36.6c3.6,0,7,0,10.9,0c-4.5,14.3-8.9,28.2-13.4,42.1
			c-0.5,1.7-1.8,3.1-2.8,4.6c-4,0-8,0-12,0c-1-1.5-2.5-2.8-3-4.4c-2.5-7.9-4.6-15.8-7-23.7c-0.9-3-2-5.9-3-8.8
			c-3.7,8.1-6.2,16.2-9.1,24c-1.6,4.4-3.9,8.6-5.9,12.9C929.9,294.7,925.9,294.7,921.9,294.7z"/>
		<path class="st6" d="M1042.9,294.7c-11.3-4.7-12.8-7-12.8-19.9c0-4.8-0.1-9.7,0.5-14.4c1-8,5.1-12.1,13-12.4
			c10.5-0.4,21-0.5,31.4,0c8.1,0.4,12.1,4.4,12.9,12.4c0.7,6.4,0.5,12.9,0.4,19.4c-0.1,8.3-4.8,12.9-12.6,14.9
			C1064.9,294.7,1053.9,294.7,1042.9,294.7z M1059.5,284.8L1059.5,284.8c3.8,0,7.7,0,11.5,0c4.5,0.1,6.9-2.3,7-6.6
			c0.2-4.8,0.1-9.7,0-14.5c-0.1-3.6-1.7-6.3-5.6-6.3c-8.6-0.2-17.3-0.2-25.9,0c-3.8,0.1-5.6,2.4-5.7,6.2c0,5-0.1,10,0,15
			c0.1,4,2.2,6.2,6.2,6.2C1051.2,284.9,1055.4,284.8,1059.5,284.8z"/>
		<path class="st6" d="M618.9,294.7c-0.1-13.6-0.1-27.3-0.2-40.9c0-4,1.9-5.8,6.1-6.2c7.2-0.6,12.4,1,16.8,7.6
			c6.8,10.2,14.7,19.6,23.4,29.1c0-12.1,0-24.1,0-36.4c3.9,0,6.8,0,10.5,0c0,4.7,0,9.1,0,13.6c0,8.1,0.2,16.3-0.1,24.4
			c-0.1,2.9-1.6,5.8-2.5,8.8c-4.3,0-8.7,0-13,0c-1.3-1.2-2.8-2.3-3.9-3.8c-5.9-7.6-11.7-15.3-17.5-22.9c-2.7-3.6-5.5-7-8.3-10.6
			c-0.4,0.2-0.9,0.4-1.3,0.6c0,12.2,0,24.4,0,36.7C625.6,294.7,622.2,294.7,618.9,294.7z"/>
		<path class="st6" d="M1133.9,294.7c-0.3-1.3-0.9-2.5-0.9-3.8c-0.1-13,0-26-0.1-39c0-3.3,1.1-4.3,4.3-4.3c12,0.2,24,0,36,0.1
			c7.8,0.1,11.5,3.8,12.4,11.5c1.3,11-0.9,15.7-9,19.8c3.7,5.2,7.5,10.4,11.3,15.6c-4,0-8,0-12,0c-3.2-4.6-6.5-9.1-9.8-13.6
			c-0.4-0.6-1.3-1.2-2-1.2c-6.7-0.1-13.4-0.1-19.8-0.1c-0.5,5.5-1,10.2-1.4,14.9C1139.9,294.7,1136.9,294.7,1133.9,294.7z
			 M1144.1,271.4c8.9,0,17.5,0.1,26.1,0c4.9-0.1,5.1-3.7,5.1-7.4c0-3.7-0.7-6.8-5.1-6.9c-8.6-0.2-17.2,0-26.1,0
			C1144.1,261.8,1144.1,266.2,1144.1,271.4z"/>
		<path class="st6" d="M732.9,294.7c-10.7-2.5-13.2-10.4-12.9-20c0.2-5,0-10,0.8-14.9c1.2-7.8,5.3-11.6,13-11.9
			c11.8-0.4,23.6-0.1,35.8-0.1c0,2.9,0,5.6,0,9.2c-5,0-10.1,0-15.2,0c-5.3,0-10.7-0.2-16,0.1c-6.7,0.3-7.8,1.8-7.6,9.3
			c12.7,0,25.4,0,38.5,0c0,2.9,0,5.3,0,8.3c-12.6,0-25.4,0-37.9,0c-1.7,7.6,0.1,10,7,10.1c8.5,0.1,17,0.4,25.4-0.1
			c5.3-0.3,6.9,1.6,6.2,6.5c-0.2,1.1-0.1,2.3-0.2,3.5C757.6,294.7,745.2,294.7,732.9,294.7z"/>
		<path class="st6" d="M1230.9,294.7c-0.2-4.8-0.6-9.6-0.7-14.4c-0.1-8.8,0.3-17.7-0.2-26.5c-0.3-5.3,1.6-7,6.5-6.2
			c1.1,0.2,2.3,0.2,4.1,0.3c0,6.1,0,12.2,0,18.8c4.4,0,8.2,0.4,11.9-0.1c1.9-0.3,3.9-1.7,5.2-3.2c2.6-3,4.8-6.4,7.2-9.6
			c5.4-7,5.8-7.1,15.9-5.4c-5.7,7.5-11.2,14.7-16.7,21.9c4.9,6.1,10,12.2,14.8,18.5c1.3,1.7,2,4,3,6c-3.7,0-7.3,0-11,0
			c-4.3-5.8-8.6-11.8-13.1-17.4c-1-1.3-3.1-2.2-4.7-2.3c-3.9-0.3-7.9-0.1-12.1-0.1c0,7,0,13.4,0,19.9
			C1237.6,294.7,1234.2,294.7,1230.9,294.7z"/>
		<path class="st6" d="M833.9,294.7c0-12.1,0-24.3,0-37.3c-5.9,0-11.6-0.2-17.3,0.1c-3.6,0.1-5.5-0.7-5.5-4.9c0-4,1.3-5.1,5.2-5
			c15.3,0.2,30.6,0.1,45.9,0.1c1.3,0,2.6,0.2,4.3,0.3c0.1,1.6,0.1,3.1,0.4,4.5c0.6,4-1,5.3-5,5.1c-5.6-0.3-11.3-0.1-18-0.1
			c0,12.7,0,25,0,37.3C840.6,294.7,837.2,294.7,833.9,294.7z"/>
		<path class="st6" d="M1198.9,196.6c-4.7,0-9.4,0.4-14-0.2c-2.2-0.3-5.2-1.9-6.2-3.7c-11.4-20.1-22.5-40.4-33.6-60.6
			c-11.8-21.6-23.4-43.2-35.2-64.8c-2.2-4-5.5-3.8-7.8,0.5c-10.5,19.6-21,39.3-31.6,58.9c-11.7,21.8-23.5,43.6-35.2,65.4
			c-1.7,3.2-3.9,4.7-7.5,4.6c-9.5-0.1-19,0-28.5-0.1c-5,0-6.1-1.7-3.8-6.1c9.2-17.3,18.6-34.5,28-51.7c11.3-20.7,22.6-41.5,34-62.1
			c6.8-12.2,13.5-24.4,20.8-36.3c4.2-6.9,11.3-9.5,19.3-9.6c4.7-0.1,9.3,0,14,0c10.9,0,19.3,4.5,24.7,14
			c11.6,20.6,23,41.2,34.4,61.9c14.1,25.5,28.1,50.9,42.1,76.4c1.4,2.6,2.8,5.3,4.1,8c1.8,3.7,0.9,5.3-3.2,5.5
			C1208.9,196.7,1203.9,196.6,1198.9,196.6z"/>
		<path class="st6" d="M859.9,64.7c-23.3,0-45.7,0-68.2,0c-2,0-4,0-6,0c-3.9,0-5.8-1.8-5.8-5.8c0.1-7.5,0.1-15,0-22.5
			c0-3.8,2-5.4,5.5-5.7c1.2-0.1,2.3,0,3.5,0c59,0,118,0,177,0c8.1,0,9,0.9,9,8.7c0,6.2,0.1,12.3,0,18.5c-0.1,5.5-1.3,6.7-6.8,6.7
			c-22,0-44,0-66,0c-1.8,0-3.6,0-6,0c0,2.4,0,4.4,0,6.3c0,39.2,0,78.3,0,117.5c0,7.4-0.7,8-8,8.1c-6.8,0-13.7,0-20.5,0
			s-7.6-0.9-7.6-7.9c0-39.2,0-78.3,0-117.5C859.9,69.3,859.9,67.3,859.9,64.7z"/>
		<path class="st6" d="M681,113.2c0-25,0-50,0-74.9c0-6.3,1.2-7.5,7.6-7.6c7,0,14,0,21,0c6.7,0,7.7,1,7.7,7.9c0,38,0,75.9,0,113.9
			c0,12.2,0,24.3,0,36.5c0,6.5-1.1,7.5-7.6,7.5c-7.2,0-14.3,0-21.5,0c-6,0-7.2-1.3-7.2-7.4C681,163.9,681,138.5,681,113.2z"/>
	</g>
</g>
</svg>
